Coordinates
version=1
nRows=17
nColumns=24
inDegrees=yes

Units are S.I. units (second, meters, Newtons, ...)
Angles are in degrees.

endheader
time	pelvis_tilt	pelvis_list	pelvis_rotation	pelvis_tx	pelvis_ty	pelvis_tz	hip_flexion_r	hip_adduction_r	hip_rotation_r	knee_angle_r	ankle_angle_r	subtalar_angle_r	mtp_angle_r	hip_flexion_l	hip_adduction_l	hip_rotation_l	knee_angle_l	ankle_angle_l	subtalar_angle_l	mtp_angle_l	lumbar_extension	lumbar_bending	lumbar_rotation
      4.97000000	    -18.67822104	      5.58553082	     -4.90570967	     -0.78152264	     -0.00912572	     -0.32843705	     35.15544090	     -5.22313951	     -0.57151818	    -57.29245211	     -1.09308850	     -2.17258690	     13.74306960	     25.22052036	      6.71086456	    -10.34890672	    -16.77524485	      2.96342169	     -0.23431680	      7.06077109	     15.52811001	     -7.68996668	    -11.63792273
      4.97500000	    -18.74829947	      5.27742245	     -4.66577454	     -0.77565840	     -0.00823033	     -0.32849630	     35.66633799	     -5.02208250	     -1.08276278	    -56.49118413	     -0.55830812	     -2.92486111	     12.91165073	     24.60924472	      6.54502821	    -10.17709752	    -16.32491660	      2.96453882	      0.03439368	      7.19813120	     15.58046077	     -7.47634831	    -11.90524896
      4.98000000	    -18.80717276	      4.96532584	     -4.44883050	     -0.76975807	     -0.00735686	     -0.32854436	     36.14395145	     -4.81630903	     -1.58157897	    -55.61126859	     -0.12750800	     -3.64479445	     12.28684948	     23.98378203	      6.36211774	    -10.02667478	    -15.86987135	      2.96460195	      0.30752345	      7.29870718	     15.63307582	     -7.24806050	    -12.18362230
      4.98500000	    -18.77829214	      4.69454236	     -4.20721152	     -0.76386137	     -0.00651107	     -0.32859187	     36.52172480	     -4.69689992	     -2.14273051	    -54.73032925	      0.37055327	     -4.23077995	     11.11254826	     23.28656051	      6.22499110	     -9.91851366	    -15.43776440	      2.95511025	      0.62109263	      7.55221689	     15.59424090	     -7.07772686	    -12.41248170
      4.99000000	    -18.88947536	      4.41448348	     -4.03388900	     -0.75802803	     -0.00585336	     -0.32857691	     37.04394668	     -4.49536081	     -2.59962609	    -53.74235697	      0.69394410	     -4.94374304	     10.76674218	     22.76127629	      6.03951459	     -9.78333205	    -15.04724377	      2.96528796	      0.82646975	      7.58517270	     15.70950457	     -6.85517531	    -12.57809132
      4.99500000	    -18.86375411	      4.10280680	     -3.78897867	     -0.75210995	     -0.00512238	     -0.32860500	     37.36600908	     -4.34941034	     -3.18368383	    -52.71268913	      1.09487791	     -5.38241073	     10.03527340	     22.08926148	      5.84265189	     -9.63648971	    -14.66663136	      3.03195041	      1.21820704	      7.77744548	     15.67739371	     -6.64452998	    -12.85138295
      5.00000000	    -18.95421638	      3.86402719	     -3.65107368	     -0.74627788	     -0.00461029	     -0.32852475	     37.85567548	     -4.18271830	     -3.63219283	    -51.65417634	      1.34745608	     -5.96996859	      9.69720130	     21.55376415	      5.67816160	     -9.51791852	    -14.28536467	      3.05276234	      1.40461342	      7.80768035	     15.78625457	     -6.45308924	    -12.96398113
      5.00500000	    -18.99385701	      3.57753121	     -3.44977950	     -0.74037511	     -0.00409066	     -0.32848814	     38.22816071	     -4.02650027	     -4.16961244	    -50.51682114	      1.62679063	     -6.36538228	      9.33418972	     20.97968381	      5.47822331	     -9.36765902	    -13.94982436	      3.13134208	      1.69633442	      7.88386217	     15.84071095	     -6.24216101	    -13.16723140
      5.01000000	    -18.93263522	      3.33737340	     -3.25127143	     -0.73448859	     -0.00353309	     -0.32844249	     38.49309017	     -3.93329721	     -4.71918511	    -49.36865593	      1.90951736	     -6.62312055	      8.77656639	     20.29827683	      5.32608137	     -9.27200665	    -13.59741918	      3.16451571	      2.02243614	      7.99160681	     15.78679060	     -6.08674096	    -13.37548081
      5.01500000	    -18.98514215	      3.08932293	     -3.11480073	     -0.72859879	     -0.00317262	     -0.32834980	     38.86901031	     -3.76976942	     -5.17637493	    -48.16070047	      2.13485676	     -6.81203816	      8.46536737	     19.74651805	      5.13961785	     -9.16575475	    -13.26480819	      3.22043471	      2.21893019	      8.01939288	     15.86794173	     -5.88242694	    -13.51784215
      5.02000000	    -19.04249621	      2.87871281	     -2.99781085	     -0.72271170	     -0.00293128	     -0.32820226	     39.24549170	     -3.62686028	     -5.59388973	    -46.92665654	      2.40090637	     -6.86263469	      8.29381869	     19.20761479	      4.97997317	     -9.04118614	    -12.94661333	      3.30618123	      2.41024827	      8.02768109	     15.96305135	     -5.71462196	    -13.56765958
      5.02500000	    -19.06076218	      2.65079073	     -2.85392615	     -0.71680734	     -0.00267993	     -0.32806320	     39.54858480	     -3.49236554	     -6.07904471	    -45.64040084	      2.60538339	     -6.88121639	      8.14449938	     18.63466551	      4.80698468	     -8.91394903	    -12.64446490	      3.38765936	      2.63334353	      8.02433602	     16.01427796	     -5.54351685	    -13.70548392
      5.03000000	    -19.08097159	      2.45493698	     -2.73591263	     -0.71090257	     -0.00251086	     -0.32791400	     39.84781718	     -3.36809122	     -6.51834716	    -44.32602592	      2.80001526	     -6.79955806	      8.06182407	     18.06768816	      4.65885238	     -8.80706368	    -12.34614475	      3.46471236	      2.82923895	      8.00022618	     16.07375773	     -5.38444209	    -13.79852833
      5.03500000	    -19.09870050	      2.26214827	     -2.61447966	     -0.70500048	     -0.00240636	     -0.32774904	     40.12583257	     -3.24084138	     -6.94868991	    -42.97615502	      2.97337989	     -6.65306674	      8.03588238	     17.50537442	      4.51160278	     -8.70707476	    -12.05863680	      3.55114259	      3.01363682	      7.96154353	     16.12919972	     -5.23355821	    -13.89027922
      5.04000000	    -19.02390278	      2.03736206	     -2.44540935	     -0.69905219	     -0.00223333	     -0.32761210	     40.25940589	     -3.12211939	     -7.47000681	    -41.56697111	      3.09899690	     -6.50155467	      8.11256329	     16.84376340	      4.34410477	     -8.57303082	    -11.77903129	      3.66122533	      3.25663912	      7.87996541	     16.08146338	     -5.07660424	    -14.09832071
      5.04500000	    -19.02028733	      1.85513072	     -2.34660721	     -0.69310690	     -0.00223371	     -0.32738823	     40.47227749	     -2.97989599	     -7.88295843	    -40.13745681	      3.23346056	     -6.23471926	      8.28255730	     16.26955289	      4.19414522	     -8.48558003	    -11.52007406	      3.77210976	      3.42579951	      7.78365309	     16.12587621	     -4.93097851	    -14.17823441
      5.05000000	    -19.02816314	      1.68182079	     -2.24472863	     -0.68715152	     -0.00230651	     -0.32715784	     40.67895008	     -2.84057323	     -8.29137596	    -38.67723250	      3.33649104	     -5.93141792	      8.52378651	     15.71941413	      4.04993171	     -8.40276817	    -11.28229351	      3.88545481	      3.59643824	      7.68653633	     16.18298906	     -4.79259842	    -14.24808708
